<svg width="147" height="198" viewBox="0 0 147 198" fill="none" xmlns="http://www.w3.org/2000/svg">
<path d="M17.621 45.5L13.75 54.5L2.75 49L22.75 3L33.75 8L29.4489 18M17.621 45.5L33.25 53.5C38.1425 68.1776 55.6247 78.8795 70.25 83.5081M17.621 45.5L29.4489 18M94.75 68.5C95.25 67.5 94.75 64.0385 94.25 63.5C81.25 49.5 70.75 55 65.25 63.5L79.75 74.1698M29.4489 18C51.8807 25.2783 86.9393 35.3271 88.75 37.5C91.25 40.5 108.75 59.5 108.75 64.5C108.75 69.5 106.398 71.3995 104.25 75.5M79.75 74.1698L80.1987 74.5L91.75 83C90.2646 87.0319 81.0339 86.9209 70.25 83.5081M79.75 74.1698C88.0344 66.1459 104.971 73.4792 105.169 87M65.25 103.5H110.25M70.25 83.5081V87M70.25 87V89.5C70.75 110.5 100.25 102.5 101.25 99C104.077 94.6744 105.221 90.6159 105.169 87M70.25 87H53.75L30.75 119M30.75 119H144.25M30.75 119V195H144.25V119M144.25 119L119.75 87H105.169" stroke="#2364AA" stroke-width="5" stroke-linecap="round" stroke-linejoin="round"/>
</svg>
