<svg width="66" height="63" viewBox="0 0 66 63" fill="none" xmlns="http://www.w3.org/2000/svg">
<path d="M59.5 13.8441C60.0517 11.9867 66.5229 -4.43897 65.0229 2.41727C64.7703 3.572 66.5649 -3.5586 65.0229 2.41727C60.647 19.3767 48.105 50.584 36.4393 62.4243C35.1547 63.7281 33.2135 61.8705 34.2166 60.1648C37.0678 55.3162 41.1266 51.2048 44.1384 46.4094C51.4292 34.8009 58.9483 15.7015 59.5 13.8441ZM36.6446 60.1799C35.8822 58.7026 36.1049 63.5555 34.7368 62.6991C26.8212 57.7438 23.0275 44.9816 13.0805 41.8491C10.2959 40.9721 1.2467 42.2606 1.54497 47.6527C1.74101 51.1967 7.54861 50.4353 8.56392 38.1574C8.65627 37.0406 8.6973 35.9221 8.72285 34.8008C8.75225 33.5104 10.4124 34.1682 10.3995 34.8008C10.3099 39.189 8.63804 49.2488 4.22879 50.8006C2.52595 51.3999 0.571609 50.4292 0.133769 48.2784C-1.32831 41.0962 9.59414 38.6974 13.4264 39.3286C23.3989 40.9711 37.9447 62.6991 36.6446 60.1799Z" fill="#FFA754"/>
</svg>
