<svg xmlns="http://www.w3.org/2000/svg" width="38" height="39" viewBox="0 0 38 39" fill="none">
  <mask id="path-1-inside-1_1017_1170" fill="white">
    <path d="M34.7991 9.60427C40.3393 18.4512 37.7131 30.2001 28.9333 35.8461C20.1534 41.4922 8.54468 38.8973 3.00442 30.0503C-2.53583 21.2033 0.090373 9.45446 8.87022 3.80844C17.6501 -1.83758 29.2588 0.757303 34.7991 9.60427ZM5.70548 28.3134C10.3044 35.6572 19.9408 37.8112 27.2288 33.1244C34.5169 28.4377 36.6969 18.685 32.098 11.3412C27.4991 3.99741 17.8627 1.84342 10.5746 6.53014C3.28654 11.2169 1.10654 20.9695 5.70548 28.3134Z"/>
  </mask>
  <path d="M34.7991 9.60427C40.3393 18.4512 37.7131 30.2001 28.9333 35.8461C20.1534 41.4922 8.54468 38.8973 3.00442 30.0503C-2.53583 21.2033 0.090373 9.45446 8.87022 3.80844C17.6501 -1.83758 29.2588 0.757303 34.7991 9.60427ZM5.70548 28.3134C10.3044 35.6572 19.9408 37.8112 27.2288 33.1244C34.5169 28.4377 36.6969 18.685 32.098 11.3412C27.4991 3.99741 17.8627 1.84342 10.5746 6.53014C3.28654 11.2169 1.10654 20.9695 5.70548 28.3134Z" fill="#9AB8D8" stroke="#9AB8D8" stroke-width="2" mask="url(#path-1-inside-1_1017_1170)"/>
</svg>