<svg xmlns="http://www.w3.org/2000/svg" width="62" height="52" viewBox="0 0 62 52" fill="none">
  <path d="M52.3567 2.59273C48.1398 5.3045 45.7755 6.82489 41.5586 9.53667M41.5586 9.53667L53.2935 28.2757M41.5586 9.53667L41.4623 13.4142M53.2935 28.2757C55.5827 26.8036 57.2133 25.755 59.5025 24.2829M53.2935 28.2757L50.1689 27.3173M50.1689 27.3173L41.4623 13.4142M50.1689 27.3173C44.5629 35.1619 43.5203 37.5282 35.9895 43.6429C34.8738 44.5488 33.59 45.1859 31.7902 46.3433C15.2963 48.8948 4.32941 51.5382 2.95501 46.6561C1.58061 41.7739 11.6534 41.0624 17.1777 40.4777L19.9952 39.9377M41.4623 13.4142C26.1506 19.869 26.4473 27.7333 26.4473 27.7333C26.4473 27.7333 22.548 30.2409 20.1484 31.784C17.7488 33.3271 17.3453 35.7063 18.2917 37.2175C19.2381 38.7287 19.9952 39.9377 19.9952 39.9377M34.8106 31.6823L22.8127 39.3977L19.9952 39.9377" stroke="#9AB8D8" stroke-width="4" stroke-linecap="round" stroke-linejoin="round"/>
</svg>