<svg width="23" height="18" viewBox="0 0 23 18" fill="none" xmlns="http://www.w3.org/2000/svg">
<path fill-rule="evenodd" clip-rule="evenodd" d="M4.33364 7.29681C3.92143 6.9502 3.77321 6.46832 3.92684 5.79427C4.09715 5.04707 4.63385 4.21819 5.38933 3.64784C6.13493 3.08493 6.93002 2.88761 7.63064 3.06665C8.2991 3.23748 9.22918 3.84076 10.0908 5.60102C10.2215 5.95828 10.4873 6.26632 10.8583 6.44178C11.6073 6.79593 12.5015 6.4759 12.8556 5.72698C13.734 3.86934 14.6922 3.24149 15.3764 3.06665C16.077 2.88761 16.8721 3.08493 17.6177 3.64784C18.3732 4.21819 18.9099 5.04707 19.0802 5.79427C19.1691 6.18445 19.1569 6.51023 19.0509 6.78266L21.4787 8.60351C22.1618 7.53189 22.2659 6.27159 22.0052 5.1276C21.6612 3.61853 20.6831 2.20315 19.4253 1.25356C18.1576 0.296509 16.441 -0.301821 14.6336 0.160062C13.4627 0.45929 12.4063 1.16391 11.5035 2.25685C10.6008 1.16391 9.54434 0.45929 8.37342 0.160062C6.56602 -0.301821 4.84939 0.296509 3.58173 1.25356C2.32393 2.20315 1.34581 3.61853 1.00186 5.1276C0.646089 6.68852 0.969648 8.46596 2.51623 9.68522C2.54866 9.71078 2.58213 9.735 2.61656 9.7578C2.76197 9.85412 2.90475 9.95016 3.04493 10.0459L5.20064 7.89017C4.92126 7.69334 4.63236 7.49545 4.33364 7.29681ZM12.0117 13.1279C13.0598 11.8574 14.6244 10.2575 16.9032 8.54685L19.4124 10.4288C16.9271 12.1954 15.3226 13.8288 14.3259 15.0369C13.7646 15.7174 13.3923 16.2676 13.1619 16.6374C13.0467 16.8223 12.9647 16.9658 12.9084 17.066L12.8877 17.1028C12.8675 17.139 12.8442 17.1806 12.8277 17.209L12.8274 17.2096C12.8175 17.2268 12.7895 17.2752 12.7544 17.3274C12.7405 17.3481 12.6939 17.4174 12.6243 17.4956C12.5919 17.5321 12.5149 17.6161 12.3994 17.7024L12.3988 17.7029C12.3283 17.7555 11.999 18.0018 11.4996 18.0018C10.9995 18.0018 10.6699 17.755 10.5994 17.7021L10.5988 17.7017C10.4832 17.6151 10.4061 17.5309 10.3736 17.4943C10.304 17.4159 10.2575 17.3464 10.2435 17.3256C10.2086 17.2734 10.1806 17.2249 10.1707 17.2077L10.1707 17.2077L10.1703 17.2071C10.154 17.1787 10.1308 17.1371 10.1107 17.101L10.09 17.064C10.0339 16.9639 9.95225 16.8205 9.83751 16.6358C9.6079 16.2662 9.23664 15.7162 8.67642 15.036C8.09766 14.3333 7.31313 13.4866 6.2688 12.5534L8.39313 10.4291C9.49097 11.4213 10.3414 12.3387 10.9921 13.1288C11.178 13.3545 11.3473 13.5694 11.5011 13.7723C11.6554 13.5692 11.8252 13.3539 12.0117 13.1279Z" fill="black"/>
</svg>
