<svg width="33" height="28" viewBox="0 0 33 28" fill="none" xmlns="http://www.w3.org/2000/svg">
<g id="Size=Normal">
<path id="Logo" fill-rule="evenodd" clip-rule="evenodd" d="M5.6301 11.2269C5.07322 10.7539 4.85956 10.0993 5.08104 9.12761C5.33059 8.03269 6.12412 6.80084 7.24902 5.95158C8.35748 5.11473 9.51517 4.83891 10.5157 5.09459C11.4653 5.33727 12.8502 6.20785 14.1534 8.86557C14.3724 9.45674 14.8139 9.96602 15.4288 10.2568C16.677 10.8471 18.1674 10.3137 18.7576 9.06548C20.0884 6.25117 21.5185 5.34326 22.4915 5.09459C23.492 4.83891 24.6497 5.11473 25.7582 5.95158C26.8831 6.80085 27.6766 8.03269 27.9262 9.12761C28.0565 9.6994 28.0362 10.1614 27.8839 10.5411L31.9217 13.5695C33.0429 11.8602 33.2165 9.83882 32.8012 8.01649C32.2622 5.65178 30.733 3.44244 28.7709 1.96111C26.7923 0.467366 24.0987 -0.476808 21.2536 0.250268C19.4763 0.704457 17.8761 1.74951 16.5036 3.34872C15.1311 1.74951 13.5309 0.704456 11.7536 0.250268C8.9085 -0.476808 6.21491 0.467365 4.23635 1.96111C2.27424 3.44244 0.745029 5.65178 0.206059 8.01649C-0.352603 10.4676 0.154239 13.2788 2.59928 15.2063C2.65332 15.249 2.70911 15.2893 2.76649 15.3273C3.02523 15.4987 3.2785 15.6695 3.52638 15.8396L7.26288 12.3522C6.741 11.9794 6.19702 11.604 5.6301 11.2269ZM17.1286 20.2007C18.7474 18.2384 21.1617 15.7707 24.6752 13.1346L28.8591 16.2726C24.9985 19.0018 22.5177 21.5253 20.9855 23.3825C20.131 24.4184 19.5652 25.2547 19.2161 25.8151C19.0417 26.0951 18.9176 26.3123 18.8321 26.4644L18.8016 26.5189C18.7703 26.5746 18.7332 26.6409 18.7072 26.6859L18.7065 26.6871C18.6909 26.7141 18.6452 26.7932 18.5877 26.8788C18.5648 26.9129 18.4874 27.028 18.3717 27.1581C18.3178 27.2187 18.1894 27.3586 17.9971 27.5025L17.996 27.5033C17.8787 27.591 17.3299 28.0014 16.4975 28.0014C15.6642 28.0014 15.115 27.5901 14.9975 27.5021L14.9965 27.5013C14.8039 27.3571 14.6754 27.2168 14.6215 27.1559C14.5057 27.0254 14.4283 26.91 14.4055 26.8759C14.348 26.7901 14.3024 26.7109 14.2868 26.6839L14.2861 26.6826C14.2603 26.6378 14.2233 26.5715 14.1922 26.5158L14.1617 26.4612C14.0766 26.3093 13.953 26.0922 13.7792 25.8124C13.4313 25.2524 12.8672 24.4165 12.0143 23.381C11.0273 22.1825 9.64491 20.7063 7.75066 19.0763L11.2951 15.5319C13.2662 17.2552 14.7591 18.8488 15.8738 20.2023C16.0979 20.4743 16.3064 20.7363 16.5001 20.9872C16.6945 20.7358 16.9037 20.4733 17.1286 20.2007ZM14.3786 24.1833C14.3749 24.1898 14.3757 24.1881 14.3803 24.1804L14.3786 24.1833ZM18.6168 24.1836C18.6214 24.1914 18.6222 24.193 18.6185 24.1866L18.6168 24.1836Z" fill="black"/>
</g>
</svg>
