<svg width="22" height="18" viewBox="0 0 22 18" fill="none" xmlns="http://www.w3.org/2000/svg">
<path fill-rule="evenodd" clip-rule="evenodd" d="M4.69914 11.9479C6.10097 13.12 7.10447 14.183 7.80581 15.0346C8.36603 15.7148 8.73729 16.2647 8.9669 16.6344C9.08164 16.8191 9.16331 16.9625 9.2194 17.0626L9.24006 17.0996C9.2602 17.1357 9.2834 17.1772 9.29973 17.2056L9.30008 17.2062L9.30009 17.2062C9.31 17.2234 9.33796 17.2719 9.37294 17.3242C9.38685 17.3449 9.43344 17.4144 9.50303 17.4929C9.53545 17.5294 9.6126 17.6137 9.72823 17.7003L9.72879 17.7007C9.79934 17.7535 10.1289 18.0003 10.629 18.0003C11.1284 18.0003 11.4577 17.7541 11.5281 17.7014L11.5288 17.7009C11.6443 17.6146 11.7213 17.5306 11.7537 17.4942C11.8233 17.4159 11.8699 17.3466 11.8838 17.3259C11.9189 17.2738 11.9469 17.2253 11.9568 17.2081L11.9571 17.2076C11.9736 17.1791 11.9969 17.1375 12.0171 17.1014L12.0378 17.0645C12.0941 16.9643 12.1761 16.8208 12.2912 16.636C12.5217 16.2661 12.894 15.7159 13.4553 15.0355C14.452 13.8273 16.0565 12.194 18.5418 10.4273L16.0325 8.54539C13.7538 10.2561 12.1892 11.856 11.1411 13.1264C10.9546 13.3524 10.7848 13.5677 10.6305 13.7708C10.4767 13.568 10.3074 13.353 10.1215 13.1273C9.33962 12.178 8.26941 11.0448 6.8281 9.81897L4.69914 11.9479ZM21.1346 5.12614C21.3953 6.27013 21.2912 7.53042 20.6081 8.60204L18.1803 6.7812C18.2863 6.50877 18.2985 6.18298 18.2096 5.79281C18.0393 5.0456 17.5026 4.21673 16.7471 3.64637C16.0015 3.08347 15.2064 2.88614 14.5058 3.06519C13.8216 3.24003 12.8634 3.86787 11.985 5.72552C11.6309 6.47443 10.7366 6.79446 9.98773 6.44032C9.61667 6.26485 9.35089 5.95681 9.22024 5.59955C8.35857 3.83929 7.4285 3.23601 6.76004 3.06519C6.05941 2.88614 5.26433 3.08346 4.51872 3.64637C3.76325 4.21673 3.22654 5.0456 3.05624 5.79281C2.96783 6.18068 2.97938 6.50493 3.08367 6.77639L0.655063 8.59784C-0.0256105 7.52713 -0.129149 6.26863 0.131252 5.12614C0.475204 3.61706 1.45333 2.20168 2.71112 1.25209C3.97879 0.295044 5.69541 -0.303286 7.50282 0.158597C8.67373 0.457825 9.73018 1.16245 10.6329 2.25539C11.5357 1.16245 12.5921 0.457826 13.763 0.158597C15.5704 -0.303286 17.287 0.295044 18.5547 1.25209C19.8125 2.20168 20.7906 3.61706 21.1346 5.12614Z" fill="black"/>
</svg>
