<svg width="33" height="28" viewBox="0 0 33 28" fill="none" xmlns="http://www.w3.org/2000/svg">
<g id="Logo">
<path id="Logo_2" fill-rule="evenodd" clip-rule="evenodd" d="M7.20929 18.6174C9.38461 20.4289 10.9356 22.0705 12.0143 23.3803C12.8672 24.4158 13.4313 25.2517 13.7792 25.8117C13.953 26.0915 14.0766 26.3086 14.1617 26.4605L14.1922 26.5151C14.2233 26.5708 14.2603 26.6371 14.2861 26.6819L14.2868 26.6832C14.3024 26.7102 14.348 26.7894 14.4055 26.8752C14.4283 26.9093 14.5057 27.0247 14.6215 27.1553C14.6754 27.2161 14.8039 27.3564 14.9965 27.5007L14.9975 27.5014C15.115 27.5894 15.6642 28.0007 16.4975 28.0007C17.3299 28.0007 17.8787 27.5903 17.996 27.5026L17.9971 27.5018C18.1894 27.3579 18.3178 27.2181 18.3717 27.1574C18.4874 27.0273 18.5648 26.9122 18.5877 26.8781C18.6452 26.7925 18.6909 26.7134 18.7065 26.6864L18.7072 26.6852C18.7332 26.6403 18.7703 26.574 18.8016 26.5182L18.8321 26.4638C18.9176 26.3117 19.0417 26.0944 19.2161 25.8144C19.5652 25.254 20.131 24.4177 20.9855 23.3818C22.5177 21.5246 24.9985 19.0011 28.8591 16.2719L24.6752 13.134C21.1617 15.77 18.7474 18.2377 17.1286 20.2C16.9037 20.4726 16.6945 20.7351 16.5001 20.9865C16.3064 20.7356 16.0979 20.4736 15.8738 20.2016C14.66 18.7278 12.9978 16.9693 10.758 15.0686L7.20929 18.6174ZM32.8012 8.0158C33.2165 9.83814 33.0429 11.8595 31.9217 13.5688L27.8839 10.5405C28.0362 10.1607 28.0565 9.69871 27.9262 9.12692C27.6766 8.032 26.8831 6.80016 25.7582 5.95089C24.6497 5.11405 23.492 4.83822 22.4915 5.0939C21.5185 5.34257 20.0884 6.25048 18.7576 9.06479C18.1674 10.313 16.677 10.8464 15.4288 10.2561C14.8139 9.96534 14.3724 9.45605 14.1534 8.86488C12.8502 6.20716 11.4653 5.33659 10.5157 5.0939C9.51517 4.83822 8.35748 5.11405 7.24902 5.95089C6.12412 6.80016 5.3306 8.032 5.08104 9.12692C4.95151 9.6952 4.97081 10.155 5.12053 10.5335L1.08153 13.5627C-0.0360933 11.8547 -0.208798 9.83597 0.206059 8.0158C0.745029 5.6511 2.27424 3.44175 4.23635 1.96043C6.21491 0.466679 8.9085 -0.477495 11.7536 0.249581C13.5309 0.70377 15.1311 1.74882 16.5036 3.34803C17.8761 1.74882 19.4763 0.70377 21.2536 0.249582C24.0987 -0.477494 26.7923 0.466679 28.7709 1.96043C30.733 3.44175 32.2622 5.6511 32.8012 8.0158ZM14.3786 24.1826C14.3749 24.1891 14.3757 24.1874 14.3803 24.1797L14.3786 24.1826ZM18.6168 24.1829C18.6214 24.1907 18.6222 24.1924 18.6185 24.1859L18.6168 24.1829Z" fill="black"/>
</g>
</svg>
