<svg xmlns="http://www.w3.org/2000/svg" width="176" height="19" viewBox="0 0 176 19" fill="none">
  <path d="M3.67918 5.20363C-1.36614 5.21805 -1.21723 2.12621 4.09393 1.39124C16.6731 -0.349514 34.3318 0.873685 46.6919 0.764648C88.496 0.395864 131.533 -0.563991 172.553 0.454021C177.481 0.576324 177.061 3.66078 171.686 4.29726C157.942 5.92481 139.739 4.32564 126.52 4.33531C85.7 4.3652 44.5259 5.08688 3.67918 5.20363Z" fill="#FF9533"/>
  <path d="M15.0407 15.728C11.7858 15.6646 8.2589 12.0114 10.828 11.2725C18.2772 9.12995 39.3498 11.2859 49.5832 11.3629C82.1827 11.6083 126.12 9.7266 161.31 14.0331C164.755 14.4546 167.811 18.0821 164.888 18.5336C155.753 19.9444 128.996 17.0656 117.728 16.813C83.1904 16.0388 49.4937 16.3995 15.0407 15.728Z" fill="#FF9533"/>
</svg>